<svg width="20" height="20" viewBox="0 0 20 20" fill="none" xmlns="http://www.w3.org/2000/svg">
<path d="M9.9999 3.82916C9.0919 2.99424 7.90341 2.53086 6.6699 2.53082C6.01702 2.5315 5.37071 2.66129 4.76818 2.91271C4.16565 3.16414 3.61879 3.53223 3.15907 3.99582C1.19824 5.96499 1.19907 9.04499 3.16074 11.0058L9.27074 17.1158C9.4124 17.365 9.68574 17.5258 9.9999 17.5258C10.1289 17.5246 10.2558 17.4931 10.3704 17.4339C10.4851 17.3747 10.5842 17.2894 10.6599 17.185L16.8391 11.0058C18.8007 9.04416 18.8007 5.96499 16.8374 3.99249C16.3779 3.52975 15.8315 3.1624 15.2295 2.91156C14.6276 2.66071 13.982 2.53132 13.3299 2.53082C12.0964 2.53102 10.908 2.99438 9.9999 3.82916ZM15.6591 5.17082C16.9616 6.47999 16.9624 8.52499 15.6607 9.82749L9.9999 15.4883L4.33907 9.82749C3.0374 8.52499 3.03824 6.47999 4.3374 5.17416C4.97074 4.54416 5.79907 4.19749 6.6699 4.19749C7.54074 4.19749 8.36574 4.54416 8.99407 5.17249L9.41074 5.58916C9.48806 5.66661 9.5799 5.72806 9.68099 5.76998C9.78209 5.81191 9.89046 5.83349 9.9999 5.83349C10.1093 5.83349 10.2177 5.81191 10.3188 5.76998C10.4199 5.72806 10.5117 5.66661 10.5891 5.58916L11.0057 5.17249C12.2657 3.91499 14.4007 3.91832 15.6591 5.17082Z" fill="#DC3845"/>
</svg>
