<?xml version="1.0" encoding="iso-8859-1"?><!-- Generator: Adobe Illustrator 22.1.0, SVG Export Plug-In . SVG Version: 6.00 Build 0)  --><svg xmlns="http://www.w3.org/2000/svg" xmlns:xlink="http://www.w3.org/1999/xlink" viewBox="0 0 24 24" style="fill: rgb(255, 255, 255)" width="100px" height="100px"><g id="Outlined"><path d="M12,8c-2.209,0-4,1.791-4,4c0,2.209,1.791,4,4,4s4-1.791,4-4C16,9.791,14.209,8,12,8z M12,14c-1.105,0-2-0.895-2-2c0-1.105,0.895-2,2-2s2,0.895,2,2C14,13.105,13.105,14,12,14z"/><path d="M12,4C4,4,1,12,1,12s3,8,11,8s11-8,11-8S20,4,12,4z M12,18c-5.276,0-7.944-4.268-8.808-5.997C4.058,10.286,6.745,6,12,6c5.276,0,7.944,4.268,8.808,5.997C19.943,13.714,17.255,18,12,18z"/></g></svg>