<svg xmlns="http://www.w3.org/2000/svg" style="fill: rgb(255, 255, 255)"  viewBox="0 0 24 24"  width="24px" height="24px"><path d="M 3.7070312 2.2929688 L 2.2929688 3.7070312 L 5.0683594 6.4824219 C 4.5292489 6.9219094 4.0485609 7.3900086 3.6191406 7.859375 C 2.2751406 9.357375 1.493875 10.888703 1.171875 11.595703 C 1.053875 11.855703 1.053875 12.144297 1.171875 12.404297 C 1.909875 14.031297 5.09 20 12 20 C 13.2 20 14.289531 19.819766 15.269531 19.509766 C 15.988638 19.290038 16.648642 19.001564 17.248047 18.662109 L 20.292969 21.707031 L 21.707031 20.292969 L 3.7070312 2.2929688 z M 12 4 C 10.8 4 9.7104688 4.1802344 8.7304688 4.4902344 L 10.390625 6.1503906 C 10.890625 6.0503906 11.43 6 12 6 C 17.28 6 19.940547 10.27 20.810547 12 C 20.480547 12.66 19.870938 13.700703 18.960938 14.720703 L 20.380859 16.140625 C 21.724859 14.642625 22.506125 13.111297 22.828125 12.404297 C 22.946125 12.144297 22.946125 11.855703 22.828125 11.595703 C 22.090125 9.9687031 18.91 4 12 4 z M 6.4882812 7.9023438 L 8.5585938 9.9726562 C 8.1994484 10.572128 8 11.260931 8 12 C 8 12.08 7.9997656 12.17 8.0097656 12.25 C 8.1297656 14.26 9.74 15.870234 11.75 15.990234 C 11.83 16.000234 11.92 16 12 16 C 12.739069 16 13.427872 15.800552 14.027344 15.441406 L 15.757812 17.171875 C 15.108399 17.481358 14.388478 17.719759 13.609375 17.849609 C 13.099375 17.949609 12.57 18 12 18 C 6.72 18 4.0594531 13.73 3.1894531 12 C 3.5194531 11.34 4.1190625 10.299297 5.0390625 9.2792969 C 5.4485147 8.8099248 5.9391762 8.3418359 6.4882812 7.9023438 z M 12.25 8.0097656 L 15.990234 11.75 C 15.870234 9.74 14.26 8.1297656 12.25 8.0097656 z M 10.070312 11.484375 L 12.515625 13.929688 C 12.356514 13.978879 12.178671 14 12 14 C 10.9 14 10 13.1 10 12 C 10 11.821329 10.021121 11.643486 10.070312 11.484375 z"/></svg>